<svg width="32" height="32" viewBox="0 0 32 32" fill="none" xmlns="http://www.w3.org/2000/svg">
<g id="slack">
<path id="Vector" d="M19.3335 13.3333C18.2268 13.3333 17.3335 12.44 17.3335 11.3333V4.66663C17.3335 3.55996 18.2268 2.66663 19.3335 2.66663C20.4402 2.66663 21.3335 3.55996 21.3335 4.66663V11.3333C21.3335 12.44 20.4402 13.3333 19.3335 13.3333Z" stroke="#643787" stroke-width="2" stroke-linecap="round" stroke-linejoin="round"/>
<path id="Vector_2" d="M27.3335 13.3334H25.3335V11.3334C25.3335 10.2267 26.2268 9.33337 27.3335 9.33337C28.4402 9.33337 29.3335 10.2267 29.3335 11.3334C29.3335 12.44 28.4402 13.3334 27.3335 13.3334Z" stroke="#643787" stroke-width="2" stroke-linecap="round" stroke-linejoin="round"/>
<path id="Vector_3" d="M12.6665 18.6666C13.7732 18.6666 14.6665 19.56 14.6665 20.6666V27.3333C14.6665 28.44 13.7732 29.3333 12.6665 29.3333C11.5598 29.3333 10.6665 28.44 10.6665 27.3333V20.6666C10.6665 19.56 11.5598 18.6666 12.6665 18.6666Z" stroke="#643787" stroke-width="2" stroke-linecap="round" stroke-linejoin="round"/>
<path id="Vector_4" d="M4.6665 18.6666H6.6665V20.6666C6.6665 21.7733 5.77317 22.6666 4.6665 22.6666C3.55984 22.6666 2.6665 21.7733 2.6665 20.6666C2.6665 19.56 3.55984 18.6666 4.6665 18.6666Z" stroke="#643787" stroke-width="2" stroke-linecap="round" stroke-linejoin="round"/>
<path id="Vector_5" d="M18.6665 19.3334C18.6665 18.2267 19.5598 17.3334 20.6665 17.3334H27.3332C28.4398 17.3334 29.3332 18.2267 29.3332 19.3334C29.3332 20.44 28.4398 21.3334 27.3332 21.3334H20.6665C19.5598 21.3334 18.6665 20.44 18.6665 19.3334Z" stroke="#643787" stroke-width="2" stroke-linecap="round" stroke-linejoin="round"/>
<path id="Vector_6" d="M20.6665 25.3334H18.6665V27.3334C18.6665 28.44 19.5598 29.3334 20.6665 29.3334C21.7732 29.3334 22.6665 28.44 22.6665 27.3334C22.6665 26.2267 21.7732 25.3334 20.6665 25.3334Z" stroke="#643787" stroke-width="2" stroke-linecap="round" stroke-linejoin="round"/>
<path id="Vector_7" d="M13.3332 12.6666C13.3332 11.56 12.4398 10.6666 11.3332 10.6666H4.6665C3.55984 10.6666 2.6665 11.56 2.6665 12.6666C2.6665 13.7733 3.55984 14.6666 4.6665 14.6666H11.3332C12.4398 14.6666 13.3332 13.7733 13.3332 12.6666Z" stroke="#643787" stroke-width="2" stroke-linecap="round" stroke-linejoin="round"/>
<path id="Vector_8" d="M11.3335 6.66663H13.3335V4.66663C13.3335 3.55996 12.4402 2.66663 11.3335 2.66663C10.2268 2.66663 9.3335 3.55996 9.3335 4.66663C9.3335 5.77329 10.2268 6.66663 11.3335 6.66663Z" stroke="#643787" stroke-width="2" stroke-linecap="round" stroke-linejoin="round"/>
</g>
</svg>
