<svg width="32" height="32" viewBox="0 0 32 32" fill="none" xmlns="http://www.w3.org/2000/svg">
<g id="wind">
<path id="Vector" d="M12.7865 6.12002C13.0962 5.80844 13.4782 5.57821 13.8983 5.44981C14.3185 5.3214 14.7639 5.2988 15.1949 5.38401C15.6259 5.46921 16.0292 5.65959 16.3688 5.93821C16.7085 6.21683 16.9741 6.57507 17.142 6.98107C17.3099 7.38708 17.3749 7.82827 17.3311 8.26544C17.2874 8.7026 17.1363 9.12218 16.8914 9.4869C16.6464 9.85161 16.3151 10.1501 15.927 10.356C15.5388 10.5618 15.1058 10.6685 14.6665 10.6667H2.6665M16.7865 25.88C17.0962 26.1916 17.4782 26.4218 17.8983 26.5502C18.3185 26.6786 18.7639 26.7012 19.1949 26.616C19.6259 26.5308 20.0292 26.3404 20.3688 26.0618C20.7085 25.7832 20.9741 25.425 21.142 25.019C21.3099 24.613 21.3749 24.1718 21.3311 23.7346C21.2874 23.2974 21.1363 22.8779 20.8914 22.5131C20.6464 22.1484 20.3151 21.8499 19.927 21.6441C19.5388 21.4382 19.1058 21.3315 18.6665 21.3334H2.6665M23.6398 10.3067C24.0276 9.91987 24.5048 9.63457 25.0291 9.47603C25.5534 9.3175 26.1087 9.2906 26.6458 9.39773C27.183 9.50486 27.6855 9.74271 28.1088 10.0902C28.5322 10.4378 28.8634 10.8843 29.0731 11.3903C29.2829 11.8963 29.3647 12.4461 29.3114 12.9913C29.258 13.5364 29.0712 14.06 28.7673 14.5157C28.4635 14.9715 28.052 15.3453 27.5693 15.6042C27.0866 15.8631 26.5476 15.999 25.9998 16H2.6665" stroke="#643787" stroke-width="2" stroke-linecap="round" stroke-linejoin="round"/>
</g>
</svg>
