<?xml version="1.0" standalone="no"?>
<!DOCTYPE svg PUBLIC "-//W3C//DTD SVG 20010904//EN"
 "http://www.w3.org/TR/2001/REC-SVG-20010904/DTD/svg10.dtd">
<svg version="1.0" xmlns="http://www.w3.org/2000/svg"
 width="700.000000pt" height="700.000000pt" viewBox="0 0 700.000000 700.000000"
 preserveAspectRatio="xMidYMid meet">
<metadata>
Created by potrace 1.14, written by Peter Selinger 2001-2017
</metadata>
<g transform="translate(0.000000,700.000000) scale(0.100000,-0.100000)"
fill="#000000" stroke="none">
<path d="M3323 6693 c-297 -44 -571 -208 -757 -453 -94 -124 -186 -329 -211
-470 -36 -204 -23 -410 39 -594 118 -352 387 -622 736 -740 l75 -25 3 -1760 2
-1759 -37 4 c-194 23 -400 75 -613 154 -100 37 -331 149 -410 198 -80 51 -163
105 -180 119 -177 138 -240 193 -340 294 -207 209 -376 451 -503 719 -46 98
-74 168 -127 320 -31 89 -79 296 -95 410 -3 25 -8 57 -11 72 l-4 27 307 0
c170 0 323 5 340 10 171 50 258 240 185 403 -23 52 -80 111 -137 142 -39 21
-47 21 -560 21 l-520 0 -47 -23 c-58 -29 -111 -82 -140 -142 -20 -40 -23 -60
-22 -175 0 -119 8 -271 18 -320 2 -11 7 -47 11 -80 22 -199 100 -490 192 -725
63 -159 176 -386 244 -488 16 -24 29 -45 29 -48 0 -15 174 -253 254 -349 87
-103 267 -284 366 -367 52 -44 104 -88 115 -97 48 -40 228 -163 325 -221 120
-73 240 -133 425 -215 60 -27 231 -86 334 -116 123 -36 280 -72 371 -85 61 -8
114 -16 130 -19 136 -25 638 -25 766 -1 11 2 47 7 79 11 33 4 69 9 80 11 11 2
36 7 55 10 86 15 254 58 360 91 908 281 1652 960 2015 1838 52 125 132 369
150 455 2 8 12 58 24 110 11 52 23 115 27 140 3 25 8 53 10 64 2 10 6 44 9 75
3 31 8 72 11 91 12 83 13 328 2 366 -27 90 -93 163 -177 194 -52 20 -72 21
-555 18 -488 -3 -502 -4 -546 -24 -108 -51 -164 -142 -165 -264 0 -89 24 -146
86 -209 76 -76 107 -81 459 -82 l309 0 -5 -47 c-8 -77 -51 -280 -82 -388 -104
-359 -307 -732 -547 -1003 -154 -173 -355 -348 -535 -465 -25 -16 -58 -38 -74
-49 -15 -11 -92 -52 -170 -91 -266 -136 -536 -223 -811 -261 -22 -3 -52 -8
-67 -11 l-28 -6 0 1760 0 1760 28 10 c15 5 56 20 92 33 392 140 703 535 748
949 7 75 6 244 -2 305 -15 99 -59 249 -93 314 -13 24 -23 48 -23 53 0 11 -100
163 -136 208 -101 123 -290 268 -424 324 -36 15 -74 31 -85 36 -124 56 -391
81 -572 53z m330 -589 c349 -95 532 -498 371 -816 -81 -161 -203 -260 -383
-312 -76 -22 -246 -16 -324 13 -245 87 -402 309 -398 561 5 379 369 653 734
554z"/>
</g>
</svg>
