<svg width="55" height="55" viewBox="0 0 55 55" fill="none" xmlns="http://www.w3.org/2000/svg">
<path id="&#226;&#128;&#156;" d="M0.745117 54.4979L2.0157 45.1939C5.31924 45.4488 7.73336 44.7691 9.25806 43.1547C10.7828 41.5403 11.7145 39.3736 12.0534 36.6546C12.3922 33.9356 12.4769 31.0042 12.3075 27.8604L0.74512 27.8604L0.745122 0.968018L22.4722 0.968019L22.4722 32.9585C22.4722 40.7756 20.5239 46.6384 16.6275 50.5469C12.6463 54.4554 7.35218 55.7724 0.745117 54.4979ZM33.0181 54.4979L34.2886 45.1939C37.5922 45.4488 40.0063 44.7691 41.531 43.1547C43.0557 41.5403 43.9875 39.3736 44.3263 36.6546C44.6651 33.9356 44.7498 31.0042 44.5804 27.8604L33.0181 27.8604V0.96802L54.7451 0.968022L54.7451 32.9585C54.7451 40.7756 52.7969 46.6384 48.9004 50.5469C44.9192 54.4554 39.6251 55.7724 33.0181 54.4979Z" fill="#AF60ED"/>
</svg>
